<?xml version="1.0" standalone="no"?>
<!DOCTYPE svg PUBLIC "-//W3C//DTD SVG 20010904//EN"
 "http://www.w3.org/TR/2001/REC-SVG-20010904/DTD/svg10.dtd">
<svg version="1.0" xmlns="http://www.w3.org/2000/svg"
 width="2565.000000pt" height="2564.000000pt" viewBox="0 0 2565.000000 2564.000000"
 preserveAspectRatio="xMidYMid meet">

<g transform="translate(0.000000,2564.000000) scale(0.100000,-0.100000)"
fill="#6eb175" stroke="none">
<path d="M12585 25633 c-1163 -20 -2350 -206 -3465 -542 -190 -57 -640 -209
-800 -271 -74 -28 -146 -55 -160 -60 -64 -21 -406 -165 -538 -226 -41 -19 -76
-34 -78 -34 -2 0 -66 -30 -141 -66 -76 -37 -170 -81 -209 -99 -226 -105 -758
-398 -1069 -590 -531 -327 -1109 -744 -1525 -1100 -26 -22 -86 -74 -135 -115
-348 -296 -873 -812 -1200 -1179 -175 -197 -195 -220 -382 -446 -139 -168
-359 -459 -570 -755 -201 -282 -495 -753 -703 -1127 -109 -196 -355 -677 -420
-823 -18 -41 -64 -144 -101 -228 -38 -84 -69 -155 -69 -157 0 -2 -11 -28 -24
-57 -21 -48 -91 -224 -160 -402 -66 -169 -186 -518 -255 -741 -260 -842 -435
-1722 -516 -2600 -69 -748 -69 -1640 0 -2390 71 -767 220 -1570 426 -2295 125
-437 231 -752 411 -1215 35 -91 129 -318 160 -385 11 -24 24 -55 29 -69 56
-146 374 -785 528 -1061 411 -734 943 -1500 1440 -2074 47 -54 111 -127 141
-162 164 -189 286 -318 564 -596 334 -334 514 -500 836 -771 79 -67 159 -133
177 -147 17 -14 110 -86 205 -160 341 -267 738 -544 1108 -772 1335 -824 2769
-1384 4305 -1682 499 -96 978 -158 1580 -203 294 -22 1352 -25 1625 -5 475 35
789 68 1155 123 1645 247 3249 825 4668 1684 109 66 212 129 230 139 69 42
485 321 585 393 111 79 418 310 500 376 76 60 151 120 192 152 50 40 122 100
179 151 25 22 58 49 72 60 35 26 167 144 258 230 42 39 99 91 126 115 128 112
724 721 821 839 16 19 50 58 76 85 25 28 57 64 69 80 13 17 40 48 60 70 21 22
48 54 60 70 13 17 37 46 53 66 17 20 39 45 48 57 75 94 157 196 178 222 14 18
41 53 62 79 158 201 596 832 714 1028 10 18 56 92 101 165 187 305 459 815
638 1198 868 1858 1275 3923 1180 5985 -8 176 -17 345 -20 375 -2 30 -10 111
-16 180 -74 863 -227 1664 -484 2545 -109 373 -312 935 -482 1335 -870 2044
-2287 3861 -4063 5206 -2301 1743 -5078 2648 -7975 2597z m6952 -7816 c17 -16
18 -45 18 -360 0 -282 -3 -348 -15 -374 -8 -18 -20 -33 -26 -33 -6 0 -19 -9
-29 -20 -10 -11 -23 -20 -29 -20 -6 0 -25 -14 -43 -30 -18 -17 -36 -30 -41
-30 -5 0 -17 -9 -27 -20 -10 -11 -23 -20 -30 -20 -7 0 -20 -9 -30 -20 -10 -11
-23 -20 -29 -20 -6 0 -25 -14 -43 -30 -18 -17 -36 -30 -41 -30 -5 0 -17 -9
-27 -20 -10 -11 -23 -20 -29 -20 -7 0 -35 -22 -63 -49 -28 -26 -61 -51 -74
-54 -13 -4 -36 -18 -51 -32 -15 -14 -31 -25 -36 -25 -5 0 -17 -9 -27 -20 -10
-11 -23 -20 -30 -20 -7 0 -20 -9 -30 -20 -10 -11 -23 -20 -29 -20 -6 0 -25
-14 -43 -30 -18 -17 -36 -30 -41 -30 -5 0 -17 -9 -27 -20 -10 -11 -23 -20 -29
-20 -6 0 -25 -14 -43 -30 -18 -17 -36 -30 -41 -30 -5 0 -17 -9 -27 -20 -10
-11 -23 -20 -29 -20 -6 0 -25 -14 -43 -30 -18 -17 -36 -30 -41 -30 -5 0 -17
-9 -27 -20 -10 -11 -23 -20 -30 -20 -7 0 -20 -9 -30 -20 -10 -11 -23 -20 -29
-20 -6 0 -25 -14 -43 -30 -18 -17 -36 -30 -41 -30 -5 0 -17 -9 -27 -20 -10
-11 -23 -20 -29 -20 -6 0 -25 -14 -43 -30 -18 -17 -36 -30 -41 -30 -5 0 -17
-9 -27 -20 -10 -11 -23 -20 -30 -20 -7 0 -20 -9 -30 -20 -10 -11 -23 -20 -29
-20 -6 0 -25 -14 -43 -30 -18 -17 -36 -30 -41 -30 -5 0 -17 -9 -27 -20 -10
-11 -23 -20 -29 -20 -6 0 -25 -14 -43 -30 -18 -17 -36 -30 -41 -30 -5 0 -17
-9 -27 -20 -10 -11 -23 -20 -29 -20 -6 0 -25 -14 -43 -30 -18 -17 -36 -30 -41
-30 -5 0 -17 -9 -27 -20 -10 -11 -23 -20 -30 -20 -7 0 -20 -9 -30 -20 -10 -11
-23 -20 -29 -20 -6 0 -25 -14 -43 -30 -18 -17 -36 -30 -41 -30 -5 0 -17 -9
-27 -20 -10 -11 -23 -20 -29 -20 -6 0 -25 -14 -43 -30 -18 -17 -36 -30 -41
-30 -5 0 -17 -9 -27 -20 -10 -11 -23 -20 -29 -20 -6 0 -25 -14 -43 -30 -18
-17 -36 -30 -41 -30 -5 0 -17 -9 -27 -20 -10 -11 -23 -20 -30 -20 -7 0 -20 -9
-30 -20 -10 -11 -23 -20 -29 -20 -6 0 -25 -14 -43 -30 -18 -17 -36 -30 -41
-30 -5 0 -17 -9 -27 -20 -10 -11 -23 -20 -29 -20 -6 0 -25 -14 -43 -30 -18
-17 -36 -30 -41 -30 -5 0 -17 -9 -27 -20 -10 -11 -23 -20 -29 -20 -6 0 -25
-14 -43 -30 -18 -17 -36 -30 -41 -30 -5 0 -17 -9 -27 -20 -10 -11 -23 -20 -30
-20 -7 0 -20 -9 -30 -20 -10 -11 -23 -20 -29 -20 -6 0 -25 -14 -43 -30 -18
-17 -36 -30 -41 -30 -5 0 -17 -9 -27 -20 -10 -11 -23 -20 -29 -20 -6 0 -25
-14 -43 -30 -18 -17 -36 -30 -41 -30 -5 0 -17 -9 -27 -20 -10 -11 -23 -20 -29
-20 -6 0 -25 -14 -43 -30 -18 -17 -36 -30 -41 -30 -5 0 -17 -9 -27 -20 -10
-11 -23 -20 -30 -20 -7 0 -20 -9 -30 -20 -10 -11 -23 -20 -29 -20 -6 0 -25
-14 -43 -30 -18 -17 -36 -30 -41 -30 -5 0 -17 -9 -27 -20 -10 -11 -23 -20 -29
-20 -6 0 -25 -14 -43 -30 -18 -17 -36 -30 -41 -30 -5 0 -17 -9 -27 -20 -10
-11 -23 -20 -30 -20 -7 0 -20 -9 -30 -20 -10 -11 -23 -20 -29 -20 -6 0 -25
-14 -43 -30 -18 -17 -36 -30 -41 -30 -5 0 -17 -9 -27 -20 -10 -11 -23 -20 -29
-20 -6 0 -25 -14 -43 -30 -18 -17 -36 -30 -41 -30 -5 0 -17 -9 -27 -20 -10
-11 -23 -20 -29 -20 -6 0 -25 -14 -43 -30 -18 -17 -36 -30 -41 -30 -5 0 -17
-9 -27 -20 -10 -11 -23 -20 -30 -20 -7 0 -20 -9 -30 -20 -10 -11 -23 -20 -29
-20 -6 0 -25 -14 -43 -30 -18 -17 -36 -30 -41 -30 -5 0 -17 -9 -27 -20 -10
-11 -23 -20 -29 -20 -6 0 -25 -14 -43 -30 -18 -17 -36 -30 -41 -30 -5 0 -17
-9 -27 -20 -10 -11 -23 -20 -29 -20 -6 0 -25 -14 -43 -30 -18 -17 -36 -30 -41
-30 -5 0 -17 -9 -27 -20 -10 -11 -23 -20 -30 -20 -7 0 -20 -9 -30 -20 -10 -11
-23 -20 -29 -20 -6 0 -25 -14 -43 -30 -18 -17 -36 -30 -41 -30 -5 0 -17 -9
-27 -20 -10 -11 -23 -20 -29 -20 -6 0 -25 -14 -43 -30 -18 -17 -36 -30 -41
-30 -5 0 -17 -9 -27 -20 -10 -11 -23 -20 -29 -20 -6 0 -25 -14 -43 -30 -18
-17 -36 -30 -41 -30 -5 0 -17 -9 -27 -20 -10 -11 -23 -20 -30 -20 -7 0 -20 -9
-30 -20 -10 -11 -23 -20 -29 -20 -6 0 -25 -14 -43 -30 -18 -17 -36 -30 -41
-30 -5 0 -17 -9 -27 -20 -10 -11 -23 -20 -29 -20 -6 0 -25 -14 -43 -30 -18
-17 -36 -30 -41 -30 -5 0 -17 -9 -27 -20 -10 -11 -23 -20 -29 -20 -6 0 -25
-14 -43 -30 -18 -17 -36 -30 -41 -30 -5 0 -17 -9 -27 -20 -10 -11 -23 -20 -30
-20 -7 0 -20 -9 -30 -20 -10 -11 -23 -20 -29 -20 -6 0 -25 -14 -43 -30 -18
-17 -36 -30 -41 -30 -5 0 -17 -9 -27 -20 -10 -11 -23 -20 -29 -20 -6 0 -25
-14 -43 -30 -18 -17 -36 -30 -41 -30 -5 0 -17 -9 -27 -20 -10 -11 -23 -20 -29
-20 -6 0 -25 -14 -43 -30 -18 -17 -36 -30 -41 -30 -5 0 -17 -9 -27 -20 -10
-11 -23 -20 -30 -20 -7 0 -20 -9 -30 -20 -10 -11 -23 -20 -29 -20 -6 0 -25
-14 -43 -30 -18 -17 -36 -30 -41 -30 -5 0 -17 -9 -27 -20 -10 -11 -23 -20 -29
-20 -6 0 -25 -14 -43 -30 -18 -17 -36 -30 -41 -30 -5 0 -17 -9 -27 -20 -10
-11 -23 -20 -30 -20 -7 0 -20 -9 -30 -20 -10 -11 -23 -20 -28 -20 -6 0 -20 -9
-31 -19 -54 -49 -163 -44 -221 11 -16 15 -35 28 -41 28 -6 0 -19 9 -29 20 -10
11 -22 20 -27 20 -5 0 -23 13 -41 30 -18 16 -37 30 -43 30 -6 0 -19 9 -29 20
-10 11 -22 20 -27 20 -5 0 -23 13 -41 30 -18 16 -37 30 -43 30 -6 0 -19 9 -29
20 -10 11 -23 20 -30 20 -7 0 -20 9 -30 20 -10 11 -22 20 -27 20 -5 0 -23 13
-41 30 -18 16 -37 30 -43 30 -6 0 -19 9 -29 20 -10 11 -22 20 -27 20 -5 0 -23
13 -41 30 -18 16 -37 30 -43 30 -6 0 -19 9 -29 20 -10 11 -22 20 -27 20 -5 0
-23 13 -41 30 -18 16 -37 30 -43 30 -6 0 -19 9 -29 20 -10 11 -23 20 -30 20
-7 0 -20 9 -30 20 -10 11 -22 20 -27 20 -5 0 -23 13 -41 30 -18 16 -37 30 -43
30 -6 0 -19 9 -29 20 -10 11 -22 20 -27 20 -5 0 -23 13 -41 30 -18 16 -37 30
-43 30 -6 0 -19 9 -29 20 -10 11 -22 20 -27 20 -5 0 -23 13 -41 30 -18 16 -37
30 -43 30 -6 0 -19 9 -29 20 -10 11 -23 20 -30 20 -7 0 -20 9 -30 20 -10 11
-22 20 -27 20 -5 0 -23 13 -41 30 -18 16 -37 30 -43 30 -6 0 -19 9 -29 20 -10
11 -22 20 -27 20 -5 0 -23 13 -41 30 -18 16 -37 30 -43 30 -6 0 -19 9 -29 20
-10 11 -22 20 -27 20 -5 0 -23 13 -41 30 -18 16 -37 30 -43 30 -6 0 -19 9 -29
20 -10 11 -23 20 -30 20 -7 0 -20 9 -30 20 -10 11 -22 20 -27 20 -5 0 -23 13
-41 30 -18 16 -37 30 -43 30 -6 0 -19 9 -29 20 -10 11 -22 20 -27 20 -5 0 -23
13 -41 30 -18 16 -37 30 -43 30 -6 0 -19 9 -29 20 -10 11 -23 20 -30 20 -7 0
-20 9 -30 20 -10 11 -22 20 -27 20 -5 0 -23 13 -41 30 -18 16 -37 30 -43 30
-6 0 -19 9 -29 20 -10 11 -22 20 -27 20 -5 0 -23 13 -41 30 -18 16 -37 30 -43
30 -6 0 -19 9 -29 20 -10 11 -22 20 -27 20 -5 0 -23 13 -41 30 -18 16 -37 30
-43 30 -6 0 -19 9 -29 20 -10 11 -23 20 -30 20 -7 0 -20 9 -30 20 -10 11 -22
20 -27 20 -5 0 -23 13 -41 30 -18 16 -37 30 -43 30 -6 0 -19 9 -29 20 -10 11
-22 20 -27 20 -5 0 -23 13 -41 30 -18 16 -37 30 -43 30 -6 0 -19 9 -29 20 -10
11 -22 20 -27 20 -5 0 -23 13 -41 30 -18 16 -37 30 -43 30 -6 0 -19 9 -29 20
-10 11 -23 20 -30 20 -7 0 -20 9 -30 20 -10 11 -22 20 -27 20 -5 0 -23 13 -41
30 -18 16 -37 30 -43 30 -6 0 -19 9 -29 20 -10 11 -22 20 -27 20 -5 0 -23 13
-41 30 -18 16 -37 30 -43 30 -6 0 -19 9 -29 20 -10 11 -22 20 -27 20 -5 0 -23
13 -41 30 -18 16 -37 30 -43 30 -6 0 -19 9 -29 20 -10 11 -23 20 -30 20 -7 0
-20 9 -30 20 -10 11 -22 20 -27 20 -5 0 -23 13 -41 30 -18 16 -37 30 -43 30
-6 0 -19 9 -29 20 -10 11 -22 20 -27 20 -5 0 -23 13 -41 30 -18 16 -37 30 -43
30 -6 0 -19 9 -29 20 -10 11 -22 20 -27 20 -5 0 -23 13 -41 30 -18 16 -37 30
-43 30 -6 0 -19 9 -29 20 -10 11 -23 20 -30 20 -7 0 -20 9 -30 20 -10 11 -22
20 -27 20 -5 0 -23 13 -41 30 -18 16 -37 30 -43 30 -6 0 -19 9 -29 20 -10 11
-22 20 -27 20 -5 0 -23 13 -41 30 -18 16 -37 30 -43 30 -6 0 -19 9 -29 20 -10
11 -22 20 -27 20 -5 0 -23 13 -41 30 -18 16 -37 30 -43 30 -6 0 -19 9 -29 20
-10 11 -23 20 -30 20 -7 0 -20 9 -30 20 -10 11 -22 20 -27 20 -5 0 -23 13 -41
30 -18 16 -37 30 -43 30 -6 0 -19 9 -29 20 -10 11 -22 20 -27 20 -5 0 -23 13
-41 30 -18 16 -37 30 -43 30 -6 0 -19 9 -29 20 -10 11 -23 20 -30 20 -7 0 -20
9 -30 20 -10 11 -22 20 -27 20 -5 0 -23 13 -41 30 -18 16 -37 30 -43 30 -6 0
-19 9 -29 20 -10 11 -22 20 -27 20 -5 0 -23 13 -41 30 -18 16 -37 30 -43 30
-6 0 -19 9 -29 20 -10 11 -22 20 -27 20 -5 0 -23 13 -41 30 -18 16 -37 30 -43
30 -6 0 -19 9 -29 20 -10 11 -23 20 -30 20 -7 0 -20 9 -30 20 -10 11 -22 20
-27 20 -5 0 -23 13 -41 30 -18 16 -37 30 -43 30 -6 0 -19 9 -29 20 -10 11 -22
20 -27 20 -5 0 -23 13 -41 30 -18 16 -37 30 -43 30 -6 0 -19 9 -29 20 -10 11
-22 20 -27 20 -5 0 -23 13 -41 30 -18 16 -37 30 -43 30 -6 0 -19 9 -29 20 -10
11 -23 20 -30 20 -7 0 -20 9 -30 20 -10 11 -22 20 -27 20 -5 0 -23 13 -41 30
-18 16 -37 30 -43 30 -6 0 -19 9 -29 20 -10 11 -22 20 -27 20 -5 0 -23 13 -41
30 -18 16 -37 30 -43 30 -6 0 -19 9 -29 20 -10 11 -22 20 -27 20 -5 0 -23 13
-41 30 -18 16 -37 30 -43 30 -6 0 -19 9 -29 20 -10 11 -23 20 -30 20 -7 0 -20
9 -30 20 -10 11 -22 20 -27 20 -5 0 -23 13 -41 30 -18 16 -37 30 -43 30 -6 0
-19 9 -29 20 -10 11 -22 20 -27 20 -16 0 -73 65 -92 104 -18 37 -18 59 -12
334 5 178 12 305 19 319 6 13 22 31 36 38 22 12 1013 14 6713 12 6405 -2 6688
-3 6705 -20z m-13363 -2017 c31 -22 76 -48 99 -59 23 -11 53 -31 66 -45 14
-14 30 -26 36 -26 7 0 20 -9 30 -20 10 -11 23 -20 30 -20 6 0 24 -13 40 -30
16 -16 34 -30 40 -30 7 0 20 -9 30 -20 10 -11 23 -20 30 -20 7 0 20 -9 30 -20
10 -11 23 -20 30 -20 6 0 24 -13 40 -30 16 -16 34 -30 40 -30 7 0 20 -9 30
-20 10 -11 23 -20 30 -20 6 0 24 -13 40 -30 16 -16 34 -30 40 -30 7 0 20 -9
30 -20 10 -11 23 -20 30 -20 6 0 24 -13 40 -30 16 -16 34 -30 40 -30 7 0 20
-9 30 -20 10 -11 23 -20 30 -20 7 0 20 -9 30 -20 10 -11 23 -20 30 -20 6 0 24
-13 40 -30 16 -16 34 -30 40 -30 7 0 20 -9 30 -20 10 -11 23 -20 30 -20 6 0
24 -13 40 -30 16 -16 34 -30 40 -30 7 0 20 -9 30 -20 10 -11 23 -20 30 -20 6
0 24 -13 40 -30 16 -16 34 -30 40 -30 7 0 20 -9 30 -20 10 -11 23 -20 30 -20
7 0 20 -9 30 -20 10 -11 23 -20 30 -20 6 0 24 -13 40 -30 16 -16 34 -30 40
-30 7 0 20 -9 30 -20 10 -11 23 -20 30 -20 6 0 24 -13 40 -30 16 -16 34 -30
40 -30 7 0 20 -9 30 -20 10 -11 23 -20 30 -20 6 0 24 -13 40 -30 16 -16 34
-30 40 -30 7 0 20 -9 30 -20 10 -11 23 -20 30 -20 7 0 20 -9 30 -20 10 -11 23
-20 30 -20 6 0 24 -13 40 -30 16 -16 34 -30 40 -30 7 0 20 -9 30 -20 10 -11
23 -20 30 -20 6 0 24 -13 40 -30 16 -16 34 -30 40 -30 7 0 20 -9 30 -20 10
-11 23 -20 30 -20 7 0 20 -9 30 -20 10 -11 23 -20 30 -20 6 0 24 -13 40 -30
16 -16 34 -30 40 -30 7 0 20 -9 30 -20 10 -11 23 -20 30 -20 6 0 24 -13 40
-30 16 -16 34 -30 40 -30 7 0 20 -9 30 -20 10 -11 23 -20 30 -20 6 0 24 -13
40 -30 16 -16 34 -30 40 -30 7 0 20 -9 30 -20 10 -11 23 -20 30 -20 7 0 20 -9
30 -20 10 -11 23 -20 30 -20 6 0 24 -13 40 -30 16 -16 34 -30 40 -30 7 0 20
-9 30 -20 10 -11 23 -20 30 -20 6 0 24 -13 40 -30 16 -16 34 -30 40 -30 7 0
20 -9 30 -20 10 -11 23 -20 30 -20 6 0 24 -13 40 -30 16 -16 34 -30 40 -30 7
0 20 -9 30 -20 10 -11 23 -20 30 -20 7 0 20 -9 30 -20 10 -11 23 -20 30 -20 6
0 24 -13 40 -30 16 -16 34 -30 40 -30 7 0 20 -9 30 -20 10 -11 23 -20 30 -20
6 0 24 -13 40 -30 16 -16 34 -30 40 -30 7 0 20 -9 30 -20 10 -11 23 -20 30
-20 6 0 24 -13 40 -30 16 -16 34 -30 40 -30 7 0 20 -9 30 -20 10 -11 23 -20
30 -20 7 0 20 -9 30 -20 10 -11 23 -20 30 -20 6 0 24 -13 40 -30 16 -16 34
-30 40 -30 7 0 20 -9 30 -20 10 -11 23 -20 30 -20 6 0 24 -13 40 -30 16 -16
34 -30 40 -30 7 0 20 -9 30 -20 10 -11 23 -20 30 -20 6 0 24 -13 40 -30 16
-16 34 -30 40 -30 7 0 20 -9 30 -20 10 -11 23 -20 30 -20 7 0 20 -9 30 -20 10
-11 22 -20 27 -20 5 0 23 -13 41 -30 18 -16 37 -30 43 -30 6 0 19 -9 29 -20
10 -11 22 -20 27 -20 5 0 23 -13 41 -30 18 -16 37 -30 43 -30 6 0 19 -9 29
-20 10 -11 22 -20 27 -20 5 0 23 -13 41 -30 18 -16 37 -30 43 -30 6 0 19 -9
29 -20 10 -11 23 -20 30 -20 7 0 20 -9 30 -20 10 -11 22 -20 27 -20 5 0 23
-13 41 -30 18 -16 37 -30 43 -30 6 0 19 -9 29 -20 10 -11 22 -20 27 -20 5 0
23 -13 41 -30 18 -16 37 -30 43 -30 6 0 19 -9 29 -20 10 -11 23 -20 30 -20 7
0 20 -9 30 -20 10 -11 22 -20 27 -20 5 0 23 -13 41 -30 18 -16 37 -30 43 -30
6 0 19 -9 29 -20 10 -11 22 -20 27 -20 5 0 23 -13 41 -30 18 -16 37 -30 43
-30 6 0 19 -9 29 -20 10 -11 22 -20 27 -20 5 0 23 -13 41 -30 18 -16 37 -30
43 -30 6 0 19 -9 29 -20 10 -11 23 -20 30 -20 7 0 20 -9 30 -20 10 -11 22 -20
27 -20 5 0 23 -13 41 -30 18 -16 37 -30 43 -30 6 0 19 -9 29 -20 10 -11 22
-20 27 -20 5 0 23 -13 41 -30 18 -16 37 -30 43 -30 6 0 19 -9 29 -20 10 -11
22 -20 27 -20 5 0 23 -13 41 -30 18 -16 37 -30 43 -30 6 0 19 -9 29 -20 10
-11 23 -20 30 -20 7 0 20 -9 30 -20 10 -11 22 -20 27 -20 5 0 23 -13 41 -30
18 -16 37 -30 43 -30 6 0 19 -9 29 -20 10 -11 22 -20 27 -20 5 0 23 -13 41
-30 18 -16 37 -30 43 -30 6 0 19 -9 29 -20 10 -11 22 -20 27 -20 5 0 23 -13
41 -30 18 -16 37 -30 43 -30 6 0 19 -9 29 -20 10 -11 24 -20 30 -20 7 0 18 -7
25 -15 7 -9 38 -28 69 -42 49 -23 72 -27 178 -31 133 -4 215 12 249 49 9 11
22 19 29 19 7 0 20 9 30 20 10 11 23 20 30 20 7 0 20 9 30 20 10 11 23 20 29
20 6 0 25 14 43 30 18 17 36 30 41 30 5 0 17 9 27 20 10 11 23 20 29 20 6 0
25 14 43 30 18 17 36 30 41 30 5 0 17 9 27 20 10 11 23 20 29 20 6 0 25 14 43
30 18 17 36 30 41 30 5 0 17 9 27 20 10 11 23 20 30 20 7 0 20 9 30 20 10 11
23 20 29 20 6 0 25 14 43 30 18 17 36 30 41 30 5 0 17 9 27 20 10 11 23 20 29
20 6 0 25 14 43 30 18 17 36 30 41 30 5 0 17 9 27 20 10 11 23 20 29 20 6 0
25 14 43 30 18 17 36 30 41 30 5 0 17 9 27 20 10 11 23 20 30 20 7 0 20 9 30
20 10 11 23 20 29 20 6 0 25 14 43 30 18 17 36 30 41 30 5 0 17 9 27 20 10 11
23 20 29 20 6 0 25 14 43 30 18 17 36 30 41 30 5 0 17 9 27 20 10 11 23 20 29
20 6 0 25 14 43 30 18 17 36 30 41 30 5 0 17 9 27 20 10 11 23 20 30 20 7 0
20 9 30 20 10 11 23 20 29 20 6 0 25 14 43 30 18 17 36 30 41 30 5 0 17 9 27
20 10 11 23 20 29 20 6 0 25 14 43 30 18 17 36 30 41 30 5 0 17 9 27 20 10 11
23 20 30 20 7 0 20 9 30 20 10 11 23 20 29 20 6 0 25 14 43 30 18 17 36 30 41
30 5 0 17 9 27 20 10 11 23 20 29 20 6 0 25 14 43 30 18 17 36 30 41 30 5 0
17 9 27 20 10 11 23 20 29 20 6 0 25 14 43 30 18 17 36 30 41 30 5 0 17 9 27
20 10 11 23 20 30 20 7 0 20 9 30 20 10 11 23 20 29 20 6 0 25 14 43 30 18 17
36 30 41 30 5 0 17 9 27 20 10 11 23 20 29 20 6 0 25 14 43 30 18 17 36 30 41
30 5 0 17 9 27 20 10 11 23 20 29 20 6 0 25 14 43 30 18 17 36 30 41 30 5 0
17 9 27 20 10 11 23 20 30 20 7 0 20 9 30 20 10 11 23 20 29 20 6 0 25 14 43
30 18 17 36 30 41 30 5 0 17 9 27 20 10 11 23 20 29 20 6 0 25 14 43 30 18 17
36 30 41 30 5 0 17 9 27 20 10 11 23 20 29 20 6 0 25 14 43 30 18 17 36 30 41
30 5 0 17 9 27 20 10 11 23 20 30 20 7 0 20 9 30 20 10 11 23 20 29 20 6 0 25
14 43 30 18 17 36 30 41 30 5 0 17 9 27 20 10 11 23 20 29 20 6 0 25 14 43 30
18 17 36 30 41 30 5 0 17 9 27 20 10 11 23 20 29 20 6 0 25 14 43 30 18 17 36
30 41 30 5 0 17 9 27 20 10 11 23 20 30 20 7 0 20 9 30 20 10 11 23 20 29 20
6 0 25 14 43 30 18 17 36 30 41 30 5 0 17 9 27 20 10 11 23 20 29 20 6 0 25
14 43 30 18 17 36 30 41 30 5 0 17 9 27 20 10 11 23 20 29 20 6 0 25 14 43 30
18 17 36 30 41 30 5 0 17 9 27 20 10 11 23 20 30 20 7 0 20 9 30 20 10 11 23
20 29 20 6 0 25 14 43 30 18 17 36 30 41 30 5 0 17 9 27 20 10 11 23 20 29 20
6 0 25 14 43 30 18 17 36 30 41 30 5 0 17 9 27 20 10 11 23 20 30 20 7 0 20 9
30 20 10 11 23 20 29 20 6 0 25 14 43 30 18 17 36 30 41 30 5 0 17 9 27 20 10
11 23 20 29 20 6 0 25 13 41 28 17 15 46 35 65 44 19 9 52 33 73 52 20 20 41
36 45 36 5 0 17 9 27 20 10 11 23 20 30 20 7 0 20 9 30 20 10 11 23 20 29 20
6 0 25 14 43 30 18 17 36 30 41 30 5 0 17 9 27 20 10 11 23 20 29 20 6 0 25
14 43 30 18 17 36 30 41 30 5 0 17 9 27 20 10 11 23 20 29 20 6 0 25 14 43 30
18 17 36 30 41 30 5 0 17 9 27 20 10 11 23 20 30 20 7 0 20 9 30 20 10 11 23
20 29 20 6 0 25 14 43 30 18 17 36 30 41 30 5 0 17 9 27 20 10 11 23 20 29 20
6 0 25 14 43 30 18 17 36 30 41 30 5 0 17 9 27 20 10 11 23 20 29 20 6 0 25
14 43 30 18 17 36 30 41 30 5 0 17 9 27 20 10 11 23 20 30 20 7 0 20 9 30 20
10 11 23 20 29 20 6 0 25 14 43 30 18 17 36 30 41 30 5 0 17 9 27 20 10 11 23
20 29 20 6 0 25 14 43 30 18 17 36 30 41 30 5 0 15 7 22 15 19 23 98 57 123
53 l22 -3 3 -3484 c1 -2397 -1 -3488 -8 -3496 -18 -21 -49 -5 -113 56 -34 33
-64 59 -69 59 -4 0 -40 32 -79 70 -40 39 -76 70 -80 70 -5 0 -54 45 -110 100
-56 55 -105 100 -110 100 -5 0 -59 50 -120 110 -61 61 -115 110 -120 110 -5 0
-54 45 -110 100 -56 55 -105 100 -110 100 -5 0 -59 50 -120 110 -61 61 -115
110 -120 110 -5 0 -41 32 -80 70 -40 39 -76 70 -80 70 -5 0 -59 50 -120 110
-61 61 -115 110 -120 110 -5 0 -54 45 -110 100 -56 55 -105 100 -110 100 -5 0
-59 50 -120 110 -61 61 -115 110 -120 110 -5 0 -41 32 -80 70 -40 39 -76 70
-80 70 -5 0 -54 45 -110 100 -56 55 -105 100 -110 100 -5 0 -59 50 -120 110
-61 61 -115 110 -120 110 -5 0 -59 50 -120 110 -61 61 -115 110 -120 110 -4 0
-45 36 -90 80 -45 44 -86 80 -90 80 -5 0 -50 41 -100 90 -51 50 -96 90 -100
90 -5 0 -59 50 -120 110 -61 61 -115 110 -120 110 -5 0 -52 43 -106 96 -53 53
-107 100 -120 105 -28 10 -59 -1 -95 -35 -15 -14 -31 -26 -36 -26 -5 0 -17 -9
-27 -20 -10 -11 -23 -20 -29 -20 -6 0 -25 -14 -43 -30 -18 -17 -36 -30 -41
-30 -5 0 -17 -9 -27 -20 -10 -11 -23 -20 -30 -20 -7 0 -20 -9 -30 -20 -10 -11
-23 -20 -29 -20 -6 0 -25 -14 -43 -30 -18 -17 -36 -30 -41 -30 -5 0 -17 -9
-27 -20 -10 -11 -23 -20 -29 -20 -6 0 -25 -14 -43 -30 -18 -17 -36 -30 -41
-30 -5 0 -17 -9 -27 -20 -10 -11 -23 -20 -29 -20 -6 0 -25 -14 -43 -30 -18
-17 -36 -30 -40 -30 -5 0 -24 -16 -43 -35 -33 -35 -33 -35 -14 -57 33 -39 148
-148 156 -148 4 0 44 -36 89 -80 45 -44 86 -80 90 -80 5 0 59 -49 120 -110 61
-60 115 -110 120 -110 5 0 54 -45 110 -100 56 -55 105 -100 110 -100 5 0 59
-49 120 -110 61 -60 115 -110 120 -110 5 0 41 -31 80 -70 40 -38 76 -70 80
-70 5 0 59 -49 120 -110 61 -60 115 -110 120 -110 5 0 54 -45 110 -100 56 -55
105 -100 110 -100 5 0 59 -49 120 -110 61 -60 115 -110 120 -110 4 0 45 -36
90 -80 45 -44 86 -80 90 -80 5 0 54 -45 110 -100 56 -55 105 -100 110 -100 5
0 54 -45 110 -100 56 -55 105 -100 110 -100 5 0 59 -49 120 -110 61 -60 115
-110 120 -110 4 0 50 -40 100 -90 51 -49 96 -90 100 -90 5 0 45 -36 90 -80 45
-44 86 -80 90 -80 5 0 59 -50 120 -110 61 -60 115 -110 120 -110 5 0 59 -50
120 -110 61 -60 115 -110 120 -110 5 0 41 -31 80 -70 40 -38 76 -70 81 -70 17
0 208 -201 208 -219 0 -10 -7 -22 -16 -25 -29 -11 -12094 -7 -12115 4 -10 6
-19 15 -19 19 0 12 247 261 258 261 5 0 50 41 101 90 50 50 96 90 100 90 5 0
59 50 120 110 61 61 115 110 120 110 5 0 54 45 110 100 56 55 105 100 110 100
5 0 59 49 120 110 61 60 115 110 120 110 4 0 40 32 80 70 39 39 75 70 80 70 5
0 59 49 120 110 61 60 115 110 120 110 5 0 54 45 110 100 56 55 105 100 110
100 5 0 59 50 120 110 61 61 115 110 120 110 5 0 54 45 110 100 56 55 105 100
110 100 4 0 40 32 80 70 39 39 75 70 80 70 5 0 59 50 120 110 61 61 115 110
120 110 5 0 59 50 120 110 61 61 115 110 120 110 4 0 45 36 90 80 45 44 85 80
90 80 4 0 49 41 100 90 50 50 96 90 100 90 5 0 59 50 120 110 61 61 115 110
120 110 5 0 54 45 110 100 56 55 105 100 110 100 8 0 243 228 270 263 12 15
11 20 -4 37 -10 11 -22 20 -27 20 -5 0 -23 13 -41 30 -18 16 -37 30 -43 30 -6
0 -19 9 -29 20 -10 11 -22 20 -27 20 -5 0 -23 13 -41 30 -18 16 -37 30 -43 30
-6 0 -19 9 -29 20 -10 11 -23 20 -30 20 -7 0 -20 9 -30 20 -10 11 -22 20 -27
20 -5 0 -23 13 -41 30 -18 16 -37 30 -43 30 -6 0 -19 9 -29 20 -10 11 -22 20
-27 20 -5 0 -23 13 -41 30 -18 16 -37 30 -43 30 -6 0 -19 9 -29 20 -10 11 -22
20 -27 20 -5 0 -23 13 -41 30 -18 16 -37 30 -43 30 -6 0 -17 7 -24 15 -22 27
-46 16 -114 -50 -37 -36 -70 -65 -75 -65 -5 0 -59 -49 -120 -110 -61 -60 -115
-110 -120 -110 -4 0 -40 -31 -80 -70 -39 -38 -75 -70 -80 -70 -5 0 -59 -49
-120 -110 -61 -60 -115 -110 -120 -110 -5 0 -54 -45 -110 -100 -56 -55 -105
-100 -110 -100 -5 0 -59 -49 -120 -110 -61 -60 -115 -110 -120 -110 -4 0 -49
-40 -100 -90 -50 -49 -95 -90 -100 -90 -4 0 -45 -36 -90 -80 -45 -44 -86 -80
-90 -80 -5 0 -59 -49 -120 -110 -61 -60 -115 -110 -120 -110 -5 0 -59 -50
-120 -110 -61 -61 -115 -110 -120 -110 -5 0 -54 -45 -110 -100 -56 -55 -105
-100 -110 -100 -4 0 -40 -31 -80 -70 -39 -38 -75 -70 -80 -70 -5 0 -59 -49
-120 -110 -61 -60 -115 -110 -120 -110 -5 0 -59 -49 -120 -110 -61 -60 -115
-110 -120 -110 -4 0 -49 -40 -100 -90 -50 -50 -95 -90 -100 -90 -4 0 -45 -36
-90 -80 -45 -44 -86 -80 -90 -80 -5 0 -59 -50 -120 -110 -61 -61 -115 -110
-119 -110 -4 0 -21 -14 -39 -30 -18 -17 -35 -30 -39 -30 -3 0 -41 -31 -84 -70
-43 -38 -85 -70 -94 -70 -9 0 -19 12 -23 28 -5 15 -8 1589 -8 3498 0 3645 -2
3504 40 3504 6 0 37 -18 69 -40z"/>
</g>
</svg>
