<?xml version="1.0" standalone="no"?>
<!DOCTYPE svg PUBLIC "-//W3C//DTD SVG 20010904//EN"
 "http://www.w3.org/TR/2001/REC-SVG-20010904/DTD/svg10.dtd">
<svg version="1.0" xmlns="http://www.w3.org/2000/svg"
 width="636.000000pt" height="304.000000pt" viewBox="0 0 636.000000 304.000000"
 preserveAspectRatio="xMidYMid meet">

<g transform="translate(0.000000,304.000000) scale(0.100000,-0.100000)"
fill="#000000" stroke="none">
<path d="M5686 1991 c-10 -16 6 -42 23 -39 9 2 17 13 19 26 3 16 -2 22 -17 22
-11 0 -22 -4 -25 -9z"/>
<path d="M5754 1965 c-4 -9 -2 -21 4 -27 15 -15 44 -1 40 19 -4 23 -36 29 -44
8z"/>
<path d="M5614 1945 c-7 -18 3 -35 21 -35 15 0 28 27 19 41 -8 14 -34 11 -40
-6z"/>
<path d="M6047 1918 c-21 -11 -22 -51 -2 -68 20 -17 65 2 65 27 0 36 -34 58
-63 41z"/>
<path d="M5675 1897 c-27 -42 5 -137 46 -137 11 0 34 13 50 30 40 39 36 76
-10 107 -43 29 -67 29 -86 0z"/>
<path d="M5585 1870 c-9 -15 14 -40 31 -33 22 8 18 43 -5 43 -11 0 -23 -5 -26
-10z"/>
<path d="M5910 1865 c-10 -12 -10 -21 -2 -40 14 -31 56 -34 72 -5 24 44 -38
83 -70 45z"/>
<path d="M6178 1859 c-27 -15 -23 -57 7 -71 19 -8 28 -8 40 2 21 18 19 57 -4
70 -23 12 -22 12 -43 -1z"/>
<path d="M5979 1739 c-51 -52 -63 -78 -57 -124 7 -59 111 -93 181 -60 47 22
61 57 51 131 -9 72 -36 104 -89 104 -30 0 -44 -8 -86 -51z"/>
<path d="M6216 1748 c-19 -11 -21 -49 -4 -66 30 -30 75 0 64 42 -7 27 -35 38
-60 24z"/>
<path d="M690 1600 l0 -80 95 0 95 0 0 -250 0 -251 93 3 92 3 3 248 2 247 90
0 90 0 0 80 0 80 -280 0 -280 0 0 -80z m530 0 l0 -50 -90 0 -90 0 0 -245 0
-245 -65 0 -65 0 0 245 0 245 -95 0 -95 0 0 50 0 50 250 0 250 0 0 -50z"/>
<path d="M1490 1671 c-99 -32 -199 -127 -225 -213 -48 -164 24 -332 174 -405
50 -25 67 -28 161 -28 87 0 113 4 152 22 63 29 134 96 166 158 24 44 27 62 27
145 0 111 -18 159 -87 229 -72 73 -126 94 -243 98 -55 1 -111 -1 -125 -6z
m263 -55 c245 -119 213 -469 -50 -551 -78 -25 -184 -17 -257 19 -196 96 -224
370 -51 502 93 71 249 84 358 30z"/>
<path d="M1525 1533 c-73 -38 -115 -105 -115 -183 0 -123 105 -214 225 -196
82 13 155 104 155 196 0 75 -54 160 -117 186 -43 18 -111 17 -148 -3z m145
-35 c33 -17 51 -35 68 -68 74 -148 -67 -302 -208 -228 -52 27 -90 90 -90 148
0 58 38 121 89 147 55 29 85 29 141 1z"/>
<path d="M2177 1656 c-67 -28 -117 -64 -147 -106 -92 -130 -85 -304 18 -421
106 -121 307 -143 484 -53 l48 24 0 135 0 135 -80 0 -80 0 0 -81 0 -80 -35
-15 c-48 -20 -84 -18 -135 9 -63 31 -90 76 -90 147 0 69 26 113 85 148 54 31
130 24 199 -19 27 -16 52 -26 56 -22 63 76 90 113 90 121 0 16 -83 62 -148 84
-81 26 -192 24 -265 -6z m264 -26 c35 -11 75 -29 88 -39 l24 -19 -32 -40 -32
-41 -50 26 c-153 80 -309 -1 -309 -159 0 -99 41 -161 128 -194 46 -18 117 -15
165 7 26 12 27 15 27 91 l0 78 50 0 50 0 0 -109 c0 -75 -4 -112 -13 -119 -7
-6 -47 -22 -89 -36 -164 -55 -311 -18 -397 101 -53 72 -69 173 -42 266 16 54
85 138 135 164 89 47 196 55 297 23z"/>
<path d="M2665 1667 c-3 -7 -4 -154 -3 -327 l3 -315 263 -3 262 -2 0 80 0 80
-170 0 -170 0 0 45 0 45 150 0 150 0 0 80 0 80 -150 0 -150 0 0 45 0 45 165 0
165 0 0 80 0 80 -255 0 c-196 0 -257 -3 -260 -13z m109 -34 c24 -87 12 -357
-22 -498 -14 -59 -21 -71 -39 -73 l-23 -3 0 289 c0 159 3 292 7 295 3 4 21 7
39 7 23 0 34 -5 38 -17z"/>
<path d="M3210 1600 l0 -80 90 0 90 0 2 -247 3 -248 93 -3 92 -3 0 251 0 250
95 0 95 0 0 80 0 80 -280 0 -280 0 0 -80z"/>
<path d="M3810 1351 l0 -331 133 0 c275 0 390 47 458 185 29 60 31 69 27 157
-4 111 -28 169 -96 229 -77 67 -131 81 -339 87 l-183 5 0 -332z m366 142 c48
-34 67 -84 62 -159 -7 -107 -61 -154 -175 -154 l-63 0 0 171 0 171 73 -3 c54
-3 80 -10 103 -26z"/>
<path d="M4690 1671 c-147 -45 -240 -169 -240 -320 0 -94 22 -152 86 -220 77
-84 131 -106 259 -106 93 0 105 2 167 33 73 36 123 86 159 161 18 36 23 64 23
131 1 73 -3 93 -27 142 -35 71 -110 140 -183 167 -57 22 -191 28 -244 12z
m176 -172 c59 -28 87 -76 87 -149 0 -102 -58 -165 -154 -165 -101 0 -166 75
-157 183 5 62 28 98 84 129 49 28 86 29 140 2z"/>
<path d="M5388 1662 c-105 -35 -197 -135 -218 -239 -43 -203 97 -387 303 -401
88 -5 163 9 245 48 l62 29 0 136 0 135 -80 0 -80 0 0 -81 0 -80 -35 -15 c-163
-68 -307 135 -188 267 19 21 50 43 69 49 46 16 125 4 166 -24 18 -12 38 -25
45 -29 7 -5 31 15 62 53 28 34 51 64 51 68 0 15 -109 74 -162 88 -68 18 -180
16 -240 -4z"/>
</g>
</svg>
